PathFileType	4	(X/Y/Z)	Patient4_TMGait_0pt7_02_left_09.trc.trc
DataRate	CameraRate	NumFrames	NumMarkers	Units	OrigDataRate	OrigDataStartFrame	OrigNumFrames
86.419753086420	86.419753086420	6	33	mm	86.419753086420	36	       141
Frame#	Time	Sacral			L.Shoulder			Chest			R.Shoulder			Neck			R.ASIS			L.ASIS			R.Thigh.Superior			R.Thigh.Lateral			R.Thigh.Inferior			R.Patella			L.Thigh.Superior			L.Thigh.Lateral			L.Thigh.Inferior			L.Patella			L.Shank.Superior			L.Shank.Lateral			L.Shank.Inferior			R.Shank.Superior			R.Shank.Lateral			R.Shank.Inferior			R.Heel			R.Midfoot.Superior			R.Midfoot.Lateral			R.Toe			L.Heel			L.Midfoot.Lateral			L.Midfoot.Superior			L.Toe			L.Elbow			L.Wrist			R.Elbow			R.Wrist			
		X1	Y1	Z1	X2	Y2	Z2	X3	Y3	Z3	X4	Y4	Z4	X5	Y5	Z5	X6	Y6	Z6	X7	Y7	Z7	X8	Y8	Z8	X9	Y9	Z9	X10	Y10	Z10	X11	Y11	Z11	X12	Y12	Z12	X13	Y13	Z13	X14	Y14	Z14	X15	Y15	Z15	X16	Y16	Z16	X17	Y17	Z17	X18	Y18	Z18	X19	Y19	Z19	X20	Y20	Z20	X21	Y21	Z21	X22	Y22	Z22	X23	Y23	Z23	X24	Y24	Z24	X25	Y25	Z25	X26	Y26	Z26	X27	Y27	Z27	X28	Y28	Z28	X29	Y29	Z29	X30	Y30	Z30	X31	Y31	Z31	X32	Y32	Z32	X33	Y33	Z33	

36	10.295000000000	782.492557304284	999.657161232609	483.291800944130	948.336454436137	1413.024379235648	269.343708402359	1074.166305021636	1345.928169121583	414.376500798092	1020.896642232318	1435.377008539077	592.581765365592	977.679185129542	1477.879173363366	418.045932846568	1012.141509282598	928.993815974226	581.070231364539	982.423265467281	944.253811046704	308.253716092855	1028.860677197795	717.493589444387	561.323165607984	938.521874226055	615.408789210717	627.161942940557	1009.181247908479	550.911617956473	550.167296994434	993.077901354660	445.762527929919	567.464993262884	1064.581134898780	766.795319132948	343.774424551770	1003.749376855240	636.380842104477	278.320295499512	1104.734882066121	575.389121241766	338.827368732655	1120.148245728469	503.474039154617	344.484715336137	1098.409747905964	427.339993309410	335.171221177164	1018.742170810074	306.587781047754	281.449843799264	1082.155321317621	198.257200749405	348.160489403908	920.056443811148	378.077928947423	574.942115514564	806.265827997381	326.194079241422	640.147070896477	796.975111728674	219.071012474060	585.016016908950	600.085986328531	121.822567873682	564.290830083753	778.434135139742	109.764914628883	597.038084109710	675.448601525309	81.840918995333	635.510200810442	869.710060391671	33.805934604574	619.949718043718	967.002773718546	38.642050549040	388.455550280593	1040.141237371947	35.685337090577	306.578853712279	1122.676334755673	97.489494203226	333.111553856473	1251.425752967244	46.511347687802	303.586856362257	789.993070989112	1093.524852161136	198.839299271069	742.664451855359	838.093310183189	212.036593999694	1163.069710088950	1124.562590451314	692.093587445520	1312.569459544897	1245.018530516738	535.862372051706	
37	10.306571428571	782.361267204635	1000.944501491384	479.870130416108	949.438251158982	1414.190370904264	266.508666046684	1074.531929595274	1347.267501091669	412.257490764424	1020.388917072556	1437.029951152390	590.063406417753	978.006229211466	1479.206737996087	415.250783211081	1011.736452887216	930.267197968406	578.519610209255	983.168312601459	945.835345126927	305.737580426272	1033.193402925113	720.053574477529	559.501316982593	945.391952359360	616.266834184012	625.666322121919	1018.539386273577	552.723882089164	549.470441437096	1003.580003656065	446.119424575736	568.018059601755	1063.967985117797	766.308629453345	340.165927510596	1000.910541037631	636.414131873459	276.279019883086	1101.388161734291	574.510108149405	336.675257783095	1116.077240077016	502.763244429967	342.942365842170	1093.660407070256	426.767513117839	333.810576927666	1012.852125018423	306.583540187240	280.660978906735	1075.181929613284	197.934169059915	347.687664016202	928.287868372031	379.568877904375	574.972712987075	811.918598702958	332.289159132205	639.092795751934	800.034091442726	224.767156839311	585.159609188221	600.153755116312	136.895380999359	563.306804103488	777.145806916865	113.669446164428	597.183428075708	672.373229159226	92.100178036125	634.752877169092	862.337169343722	32.646735373486	620.008550346236	958.979587458609	38.538971975346	388.341531350487	1032.079705755756	35.681112787101	306.434113816902	1114.513207978763	97.597060336213	332.954035233322	1243.328202571893	46.799484905700	303.351573195019	796.364919294623	1091.358493408300	195.531580748203	757.386706565878	834.388244346698	208.191103762863	1156.408486838743	1123.684939354590	691.768355926316	1306.682282604203	1240.737633665588	533.818607850751	
38	10.318142857143	782.114469567963	1002.161798232739	476.525869097688	950.609822156410	1415.353811882352	263.722055003285	1074.815185221848	1348.617511441118	410.347578898208	1019.551781459782	1438.651343982050	587.696469850339	978.161660433098	1480.517884014312	412.507841286187	1011.230005164854	931.496301827183	576.138609193974	983.776575923151	947.380690092815	303.430013517257	1037.725396973574	722.925833570978	557.796155339798	952.594308448395	617.414522470982	624.332467049078	1028.193111997585	554.972367422258	548.879094050442	1014.462447623472	447.035873297211	568.406743341363	1062.921236305176	765.508771565865	336.568856782115	997.572654429633	636.360630004323	274.246056216419	1097.480913538540	573.503058589941	334.586960132943	1111.394551290046	501.956546385501	341.350616714915	1088.369065650885	426.160054444107	332.417378309481	1006.554486568685	306.449786840501	279.890779543023	1067.993125112346	197.600255156376	347.196387977726	937.102121523418	381.462042805471	574.863426061619	818.408777634140	338.686551042763	637.922477103645	803.926057711126	230.939351817250	585.104081331826	601.617958999441	152.679511055418	561.922628365277	776.590653286814	118.256212946461	597.156849152241	670.292472665526	103.243872217494	633.711079618302	855.426194023348	31.544339322994	620.176823856841	950.911478547569	38.441448249239	388.267920947470	1023.971428922265	35.634838114476	306.327618111081	1106.346341564191	97.624121580684	332.812309591528	1235.213207238679	46.923040483970	303.151723439680	802.926609993809	1089.282923167354	192.157021999747	773.009425774977	830.951673088729	204.137267125254	1148.771233489147	1122.695058664452	691.956109282307	1300.917730976916	1235.143704033439	532.453692105382	
39	10.329714285714	781.757698381948	1003.272625009665	473.295846917365	951.833360186017	1416.480437759978	261.006959312350	1075.010828371101	1349.928780641166	408.653383876186	1018.414225590001	1440.195880955125	585.496061907562	978.160892061542	1481.787444135826	409.838279067570	1010.624905065029	932.666950664991	573.932167269532	984.235094662709	948.859675028110	301.307710776788	1042.349231082446	726.100538986664	556.165505697066	960.032220451647	618.881081262021	623.135403665278	1037.984648407518	557.686895651046	548.330677773977	1025.617487692375	448.529544050085	568.585803624104	1061.517027477225	764.517289242054	333.091219833170	993.928041383130	636.288738612224	272.241701340206	1093.178583360027	572.446922032340	332.603363044205	1106.268405487383	501.099932370931	339.751808974637	1082.700500992378	425.539393827327	331.040225468290	1000.014004201152	306.232361651555	279.100287700963	1060.664479278341	197.260387884602	346.700239162886	946.387646234860	383.760326727699	574.584803167109	825.644067061548	345.294396675053	636.624861497126	808.612351398893	237.495548504815	584.820975064823	604.488465032445	168.776199328700	560.125383739715	776.837335120342	123.478735702507	596.930394568537	669.321225815187	115.010067569716	632.368927508574	849.234484705086	30.676305816029	620.452932402120	942.802234402984	38.362549153922	388.213753204150	1015.825671590545	35.561702874370	306.243832124921	1098.188284412285	97.577187623591	332.684328158177	1227.089719318435	46.883253618874	302.987945965663	809.695890524540	1087.266037907535	188.714714860389	789.463281783853	827.826379573810	199.891503783492	1140.214669189383	1121.583032712120	692.611039584077	1295.304017794409	1228.208954028993	531.816948242228	
40	10.341285714286	781.294005136808	1004.265603078269	470.197086709188	953.078957225709	1417.551887497816	258.387625894744	1075.111446034786	1351.167765573533	407.169766266553	1017.016823960349	1441.633367559193	583.471148918216	978.028669434725	1483.003316161138	407.267978215809	1009.920585509093	933.785228773110	571.892285310508	984.543442411017	950.252823062057	299.335946160354	1046.950264903827	729.567358954992	554.555758056974	967.611476142305	620.695847811779	622.050377007953	1047.765447076852	560.892415715383	547.766182996637	1036.949418806290	450.612400223034	568.547169129150	1059.842932315421	763.447271205358	329.821926365918	990.133694658086	636.243356447314	270.296859188353	1088.630869506748	571.398330091297	330.756779202536	1100.855676205996	500.228828619865	338.199274606155	1076.803131348336	424.923622454342	329.724829725618	993.362322171829	305.975206638514	278.278299597258	1053.260716723881	196.920353875343	346.213835092070	956.047434085479	386.464516884799	574.143000308466	833.528455437132	352.020968321472	635.208956261060	814.068366949249	244.322483362537	584.308899381090	608.735464865997	184.731144739886	557.937747378762	777.988398029286	129.238336244777	596.490776795105	669.575055231788	127.066954876536	630.736059454568	844.080180489295	30.257328244037	620.813800828016	934.660943239769	38.309057831196	388.163090637963	1007.654651905154	35.477250928475	306.170687747140	1090.045891350967	97.472613996936	332.568468491995	1218.964521559366	46.706843494733	302.856316119702	816.710184584972	1085.281429022230	185.200644514046	806.690460194730	825.056145245434	195.476043439086	1130.803993451903	1120.352900060222	693.662900307834	1289.853899841193	1219.890652233658	531.956619104210	
41	10.352857142857	780.724797618716	1005.152013665826	467.227113371218	954.309319254979	1418.563686089429	255.886537843314	1075.108584474141	1352.318847078242	405.881435590730	1015.403682344802	1442.949752823913	581.623309863405	977.793441081376	1484.163532211151	404.822447800126	1009.114352617032	934.872081934231	570.002792339806	984.715620387413	951.550418658271	297.480283749308	1051.420925516873	733.313673086767	552.912890870485	975.244686188540	622.882976722205	621.055600677966	1057.406547809993	564.603210193840	547.139435294650	1048.373513561100	453.289213309208	568.315777492389	1057.986772960297	762.387565291975	326.825863408048	986.300169691327	636.246512519224	268.447760069588	1083.957400135023	570.389948516391	329.067997164036	1095.285681916698	499.366726065998	336.744682511735	1070.794944347921	424.325627340272	328.506623649347	986.688347774453	305.715244075073	277.435970620108	1045.830756127379	196.585478762786	345.749814549852	966.001881214622	389.570758698597	573.574778970098	841.969511618410	358.773045788609	633.703505616075	820.284646289500	251.286549865468	583.591069092112	614.291719159637	200.063914825839	555.422583399875	780.174849765820	135.392718942099	595.842772074889	671.165543106425	139.036203543700	628.851842838519	840.329474004906	30.503596101676	621.215699938605	926.498833243314	38.282621266961	388.106072064846	999.470788464476	35.394673937049	306.100391456257	1081.921352375531	97.330162404576	332.464181367041	1210.842072418485	46.432796221033	302.750910260409	824.018801993428	1083.315536924652	181.608239361456	824.642568841312	822.690525374780	190.920441278616	1120.612870859929	1119.027961647728	695.019632940663	1284.557288405631	1210.139396181159	532.918417599224	
